<svg width="522" height="235" viewBox="0 0 522 235" fill="none" xmlns="http://www.w3.org/2000/svg">
<path d="M13.7343 117.566C13.7343 118.789 13.3672 119.789 12.6331 120.563C11.899 121.318 11.0017 121.818 9.9413 122.062V122.123C11.6543 122.266 12.8778 122.796 13.6119 123.714C14.3665 124.611 14.7437 125.723 14.7437 127.048C14.7437 128.965 14.1218 130.454 12.8778 131.514C11.6339 132.554 9.73738 133.074 7.18833 133.074H0V111.968H6.05655C8.6056 111.968 10.5225 112.427 11.8072 113.345C13.0919 114.262 13.7343 115.669 13.7343 117.566ZM6.36244 114.17H2.63062V121.053H5.93419C7.56559 121.053 8.79933 120.767 9.63542 120.196C10.4715 119.605 10.8896 118.728 10.8896 117.566C10.8896 116.403 10.5429 115.547 9.84954 114.996C9.1562 114.446 7.99383 114.17 6.36244 114.17ZM6.94362 123.255H2.63062V130.872H7.49421C9.12561 130.872 10.2676 130.535 10.9201 129.862C11.5727 129.169 11.899 128.231 11.899 127.048C11.899 125.865 11.4809 124.938 10.6448 124.265C9.80875 123.592 8.57501 123.255 6.94362 123.255Z" fill="black"/>
<path d="M21.1069 123.898V133.074H18.568V117.78H21.0151V120.778H21.0763C21.4637 119.738 22.0449 118.932 22.8198 118.361C23.6151 117.77 24.5736 117.474 25.6952 117.474V120.227H25.1446C23.921 120.227 22.9422 120.502 22.2081 121.053C21.4739 121.583 21.1069 122.531 21.1069 123.898Z" fill="black"/>
<path d="M37.5432 123.194C37.5432 122.052 37.2272 121.155 36.595 120.502C35.9832 119.829 35.086 119.493 33.9032 119.493C32.7408 119.493 31.864 119.789 31.2726 120.38C30.6812 120.971 30.3651 121.716 30.3243 122.613H27.7855C27.8263 121.92 27.9894 121.257 28.2749 120.625C28.5604 119.992 28.958 119.452 29.4678 119.003C29.9777 118.534 30.5996 118.167 31.3337 117.902C32.0883 117.617 32.9447 117.474 33.9032 117.474C34.7393 117.474 35.5346 117.586 36.2891 117.81C37.0436 118.035 37.6962 118.402 38.2468 118.912C38.8178 119.401 39.2664 120.054 39.5927 120.869C39.919 121.665 40.0821 122.633 40.0821 123.775V133.074H37.635V130.076H37.5738C37.1864 131.117 36.5542 131.932 35.6773 132.524C34.8005 133.095 33.7706 133.38 32.5879 133.38C31.8538 133.38 31.1604 133.278 30.5079 133.074C29.8757 132.85 29.3149 132.534 28.8255 132.126C28.3361 131.718 27.9486 131.218 27.6631 130.627C27.398 130.036 27.2655 129.373 27.2655 128.639C27.2655 127.864 27.4286 127.211 27.7549 126.681C28.0812 126.131 28.5094 125.682 29.0396 125.335C29.5902 124.989 30.2224 124.723 30.9361 124.54C31.6702 124.356 32.4451 124.224 33.2608 124.142L37.5432 123.683V123.194ZM33.1997 131.361C34.5456 131.361 35.606 130.953 36.3809 130.138C37.1558 129.322 37.5432 128.088 37.5432 126.436V125.611L33.475 126.069C32.333 126.192 31.4663 126.467 30.8749 126.895C30.3039 127.324 30.0184 127.945 30.0184 128.761C30.0184 129.516 30.3243 130.138 30.9361 130.627C31.5479 131.117 32.3024 131.361 33.1997 131.361Z" fill="black"/>
<path d="M54.1911 123.592C54.1911 122.327 53.9056 121.349 53.3346 120.655C52.784 119.941 51.897 119.585 50.6734 119.585C49.4295 119.585 48.522 119.941 47.951 120.655C47.4004 121.369 47.1251 122.266 47.1251 123.347V133.074H44.5863V117.78H47.0334V120.778H47.0945C47.482 119.738 48.0632 118.932 48.8381 118.361C49.6334 117.77 50.5918 117.474 51.7134 117.474C52.5291 117.474 53.253 117.617 53.8852 117.902C54.5174 118.167 55.0374 118.534 55.4452 119.003C55.8735 119.472 56.1896 120.033 56.3935 120.686C56.6178 121.318 56.73 121.991 56.73 122.705V133.074H54.1911V123.592Z" fill="black"/>
<path d="M60.3377 125.427C60.3377 124.387 60.4703 123.388 60.7354 122.429C61.0209 121.45 61.4389 120.604 61.9895 119.89C62.5401 119.156 63.2233 118.575 64.039 118.147C64.8751 117.698 65.8335 117.474 66.9143 117.474C68.1174 117.474 69.1575 117.79 70.0343 118.422C70.9316 119.054 71.5944 119.921 72.0226 121.022H72.0838V111.968H74.6226V133.074H72.0838V129.832H72.0226C71.5944 130.933 70.9316 131.8 70.0343 132.432C69.1575 133.064 68.1174 133.38 66.9143 133.38C65.8335 133.38 64.8751 133.166 64.039 132.738C63.2233 132.289 62.5401 131.708 61.9895 130.994C61.4389 130.26 61.0209 129.414 60.7354 128.455C60.4703 127.476 60.3377 126.467 60.3377 125.427ZM63.0907 125.427C63.0907 127.12 63.4884 128.537 64.2837 129.679C65.079 130.8 66.2108 131.361 67.679 131.361C69.1473 131.361 70.2688 130.8 71.0438 129.679C71.8187 128.537 72.2061 127.12 72.2061 125.427C72.2061 123.734 71.8187 122.327 71.0438 121.206C70.2688 120.064 69.1473 119.493 67.679 119.493C66.2108 119.493 65.079 120.064 64.2837 121.206C63.4884 122.327 63.0907 123.734 63.0907 125.427Z" fill="black"/>
<path d="M231.955 228.103C231.955 229.367 232.23 230.356 232.781 231.07C233.331 231.763 234.208 232.11 235.411 232.11C236.696 232.11 237.593 231.753 238.103 231.039C238.613 230.326 238.868 229.428 238.868 228.348V218.62H241.407V233.915H238.96V230.917H238.899C238.511 231.957 237.95 232.773 237.216 233.364C236.502 233.935 235.605 234.221 234.524 234.221C233.688 234.221 232.944 234.088 232.291 233.823C231.659 233.537 231.129 233.16 230.701 232.691C230.273 232.222 229.946 231.671 229.722 231.039C229.518 230.387 229.416 229.704 229.416 228.99V218.62H231.955V228.103Z" fill="black"/>
<path d="M255.081 229.908C255.081 229.398 254.877 228.939 254.469 228.531C254.082 228.123 253.307 227.787 252.145 227.522L250.095 227.063C248.627 226.737 247.475 226.227 246.639 225.533C245.803 224.84 245.384 223.892 245.384 222.689C245.384 221.424 245.925 220.384 247.006 219.569C248.086 218.732 249.443 218.314 251.074 218.314C252.807 218.314 254.235 218.773 255.356 219.691C256.498 220.588 257.12 221.74 257.222 223.147H254.683C254.581 222.271 254.214 221.587 253.582 221.098C252.97 220.588 252.134 220.333 251.074 220.333C250.197 220.333 249.443 220.517 248.81 220.884C248.178 221.231 247.862 221.751 247.862 222.444C247.862 223.076 248.107 223.535 248.596 223.82C249.106 224.106 249.932 224.381 251.074 224.646L253.123 225.105C254.592 225.431 255.693 225.982 256.427 226.757C257.161 227.532 257.528 228.531 257.528 229.755C257.528 231.06 256.998 232.13 255.938 232.966C254.898 233.802 253.389 234.221 251.41 234.221C250.411 234.221 249.514 234.057 248.719 233.731C247.944 233.405 247.281 232.987 246.73 232.477C246.2 231.947 245.772 231.345 245.446 230.672C245.14 229.979 244.966 229.275 244.926 228.562H247.465C247.546 229.602 247.954 230.468 248.688 231.162C249.422 231.855 250.36 232.202 251.502 232.202C252.481 232.202 253.317 231.998 254.01 231.59C254.724 231.182 255.081 230.621 255.081 229.908Z" fill="black"/>
<path d="M273.928 229.082C273.785 229.755 273.561 230.407 273.255 231.039C272.949 231.651 272.531 232.191 272.001 232.661C271.471 233.13 270.818 233.507 270.043 233.792C269.289 234.078 268.391 234.221 267.351 234.221C266.209 234.221 265.2 234.006 264.323 233.578C263.446 233.15 262.702 232.579 262.09 231.865C261.499 231.131 261.04 230.285 260.714 229.326C260.408 228.348 260.255 227.328 260.255 226.267C260.255 225.207 260.398 224.198 260.683 223.239C260.989 222.26 261.438 221.414 262.029 220.7C262.62 219.966 263.344 219.385 264.201 218.957C265.078 218.529 266.087 218.314 267.229 218.314C268.371 218.314 269.391 218.529 270.288 218.957C271.185 219.385 271.93 219.987 272.521 220.762C273.133 221.516 273.571 222.434 273.836 223.515C274.122 224.575 274.213 225.747 274.112 227.032H262.824C262.885 228.623 263.344 229.887 264.201 230.825C265.057 231.743 266.189 232.202 267.596 232.202C268.249 232.202 268.799 232.1 269.248 231.896C269.717 231.692 270.084 231.437 270.349 231.131C270.635 230.805 270.859 230.458 271.022 230.091C271.185 229.724 271.308 229.388 271.389 229.082H273.928ZM267.229 220.333C265.883 220.333 264.843 220.772 264.109 221.649C263.375 222.525 262.947 223.647 262.824 225.013H271.603C271.501 223.647 271.083 222.525 270.349 221.649C269.615 220.772 268.575 220.333 267.229 220.333Z" fill="black"/>
<path d="M280.38 224.738V233.915H277.841V218.62H280.288V221.618H280.349C280.737 220.578 281.318 219.773 282.093 219.202C282.888 218.61 283.847 218.314 284.968 218.314V221.067H284.418C283.194 221.067 282.215 221.343 281.481 221.893C280.747 222.424 280.38 223.372 280.38 224.738Z" fill="black"/>
<path d="M210.077 6.47127V21.7656H207.538V6.47127H210.077ZM207.324 3.62652V0.659424H210.291V3.62652H207.324Z" fill="black"/>
<path d="M213.85 14.1184C213.85 13.0784 213.983 12.0792 214.248 11.1207C214.534 10.1419 214.952 9.29562 215.502 8.58188C216.053 7.84776 216.736 7.26657 217.552 6.83833C218.388 6.3897 219.346 6.16538 220.427 6.16538C221.63 6.16538 222.67 6.48146 223.547 7.11362C224.444 7.74579 225.107 8.61247 225.535 9.71366H225.596V0.659424H228.135V21.7656H225.596V18.5232H225.535C225.107 19.6244 224.444 20.4911 223.547 21.1232C222.67 21.7554 221.63 22.0715 220.427 22.0715C219.346 22.0715 218.388 21.8573 217.552 21.4291C216.736 20.9805 216.053 20.3993 215.502 19.6856C214.952 18.9514 214.534 18.1051 214.248 17.1467C213.983 16.1679 213.85 15.1584 213.85 14.1184ZM216.603 14.1184C216.603 15.811 217.001 17.2283 217.796 18.3702C218.592 19.4918 219.723 20.0526 221.192 20.0526C222.66 20.0526 223.781 19.4918 224.556 18.3702C225.331 17.2283 225.719 15.811 225.719 14.1184C225.719 12.4259 225.331 11.0188 224.556 9.89719C223.781 8.75521 222.66 8.18423 221.192 8.18423C219.723 8.18423 218.592 8.75521 217.796 9.89719C217.001 11.0188 216.603 12.4259 216.603 14.1184Z" fill="black"/>
<path d="M245.535 16.9326C245.393 17.6055 245.168 18.2581 244.862 18.8902C244.557 19.502 244.139 20.0424 243.608 20.5114C243.078 20.9805 242.426 21.3577 241.651 21.6432C240.896 21.9287 239.999 22.0715 238.959 22.0715C237.817 22.0715 236.807 21.8573 235.931 21.4291C235.054 21.0009 234.309 20.4299 233.698 19.7161C233.106 18.982 232.647 18.1357 232.321 17.1773C232.015 16.1984 231.862 15.1788 231.862 14.1184C231.862 13.058 232.005 12.0486 232.291 11.0901C232.596 10.1113 233.045 9.26503 233.636 8.55129C234.228 7.81716 234.952 7.23598 235.808 6.80774C236.685 6.3795 237.695 6.16538 238.837 6.16538C239.978 6.16538 240.998 6.3795 241.895 6.80774C242.793 7.23598 243.537 7.83755 244.128 8.61247C244.74 9.36699 245.179 10.2846 245.444 11.3654C245.729 12.4259 245.821 13.5984 245.719 14.8831H234.432C234.493 16.4737 234.952 17.7381 235.808 18.6761C236.665 19.5938 237.796 20.0526 239.204 20.0526C239.856 20.0526 240.407 19.9507 240.855 19.7467C241.324 19.5428 241.691 19.2879 241.957 18.982C242.242 18.6557 242.466 18.3091 242.629 17.942C242.793 17.5749 242.915 17.2385 242.997 16.9326H245.535ZM238.837 8.18423C237.491 8.18423 236.451 8.62266 235.716 9.49954C234.982 10.3764 234.554 11.498 234.432 12.8643H243.211C243.109 11.498 242.691 10.3764 241.957 9.49954C241.222 8.62266 240.182 8.18423 238.837 8.18423Z" fill="black"/>
<path d="M259.053 12.2831C259.053 11.0188 258.768 10.0399 258.197 9.3466C257.646 8.63286 256.759 8.276 255.535 8.276C254.292 8.276 253.384 8.63286 252.813 9.3466C252.263 10.0603 251.987 10.9576 251.987 12.0384V21.7656H249.448V6.47127H251.895V9.46895H251.957C252.344 8.42894 252.925 7.62344 253.7 7.05245C254.495 6.46107 255.454 6.16538 256.576 6.16538C257.391 6.16538 258.115 6.30812 258.747 6.59362C259.379 6.85872 259.899 7.22579 260.307 7.69481C260.736 8.16384 261.052 8.72463 261.256 9.37718C261.48 10.0093 261.592 10.6823 261.592 11.396V21.7656H259.053V12.2831Z" fill="black"/>
<path d="M267.039 8.49012H264.255V6.47127H267.039V2.98416H269.578V6.47127H273.462V8.49012H269.578V18.0644C269.578 18.6557 269.7 19.084 269.945 19.3491C270.21 19.6142 270.658 19.7467 271.291 19.7467H273.34V21.7656H270.587C269.302 21.7656 268.385 21.4699 267.834 20.8785C267.304 20.2871 267.039 19.4408 267.039 18.3397V8.49012Z" fill="black"/>
<path d="M279.051 6.47127V21.7656H276.512V6.47127H279.051ZM276.298 3.62652V0.659424H279.265V3.62652H276.298Z" fill="black"/>
<path d="M284.812 8.49012H282.029V6.47127H284.812V2.98416H287.351V6.47127H291.236V8.49012H287.351V18.0644C287.351 18.6557 287.474 19.084 287.718 19.3491C287.983 19.6142 288.432 19.7467 289.064 19.7467H291.114V21.7656H288.361C287.076 21.7656 286.158 21.4699 285.608 20.8785C285.077 20.2871 284.812 19.4408 284.812 18.3397V8.49012Z" fill="black"/>
<path d="M307.622 6.47127L300.281 26.9656H297.651L300.067 20.2361H297.559L292.542 6.47127H295.173L300.128 20.0526L304.992 6.47127H307.622Z" fill="black"/>
<path d="M243.942 123.16C243.942 122.018 243.626 121.121 242.994 120.468C242.382 119.795 241.485 119.459 240.302 119.459C239.139 119.459 238.263 119.755 237.671 120.346C237.08 120.937 236.764 121.682 236.723 122.579H234.184C234.225 121.886 234.388 121.223 234.673 120.591C234.959 119.959 235.357 119.418 235.866 118.969C236.376 118.5 236.998 118.133 237.732 117.868C238.487 117.583 239.343 117.44 240.302 117.44C241.138 117.44 241.933 117.552 242.688 117.777C243.442 118.001 244.095 118.368 244.645 118.878C245.216 119.367 245.665 120.02 245.991 120.835C246.318 121.631 246.481 122.599 246.481 123.741V133.04H244.034V130.043H243.972C243.585 131.083 242.953 131.898 242.076 132.49C241.199 133.061 240.169 133.346 238.986 133.346C238.252 133.346 237.559 133.244 236.906 133.04C236.274 132.816 235.713 132.5 235.224 132.092C234.735 131.684 234.347 131.185 234.062 130.593C233.797 130.002 233.664 129.339 233.664 128.605C233.664 127.83 233.827 127.177 234.153 126.647C234.48 126.097 234.908 125.648 235.438 125.301C235.989 124.955 236.621 124.69 237.335 124.506C238.069 124.322 238.844 124.19 239.659 124.108L243.942 123.65V123.16ZM239.598 131.327C240.944 131.327 242.005 130.919 242.779 130.104C243.554 129.288 243.942 128.054 243.942 126.403V125.577L239.874 126.035C238.732 126.158 237.865 126.433 237.274 126.861C236.703 127.29 236.417 127.912 236.417 128.727C236.417 129.482 236.723 130.104 237.335 130.593C237.946 131.083 238.701 131.327 239.598 131.327Z" fill="black"/>
<path d="M260.59 123.558C260.59 122.293 260.304 121.315 259.733 120.621C259.183 119.908 258.296 119.551 257.072 119.551C255.828 119.551 254.921 119.908 254.35 120.621C253.799 121.335 253.524 122.232 253.524 123.313V133.04H250.985V117.746H253.432V120.744H253.493C253.881 119.704 254.462 118.898 255.237 118.327C256.032 117.736 256.99 117.44 258.112 117.44C258.928 117.44 259.652 117.583 260.284 117.868C260.916 118.133 261.436 118.5 261.844 118.969C262.272 119.438 262.588 119.999 262.792 120.652C263.016 121.284 263.129 121.957 263.129 122.671V133.04H260.59V123.558Z" fill="black"/>
<path d="M266.736 125.393C266.736 124.353 266.869 123.354 267.134 122.395C267.419 121.417 267.838 120.57 268.388 119.857C268.939 119.122 269.622 118.541 270.438 118.113C271.274 117.664 272.232 117.44 273.313 117.44C274.516 117.44 275.556 117.756 276.433 118.388C277.33 119.02 277.993 119.887 278.421 120.988H278.482V111.934H281.021V133.04H278.482V129.798H278.421C277.993 130.899 277.33 131.766 276.433 132.398C275.556 133.03 274.516 133.346 273.313 133.346C272.232 133.346 271.274 133.132 270.438 132.704C269.622 132.255 268.939 131.674 268.388 130.96C267.838 130.226 267.419 129.38 267.134 128.421C266.869 127.443 266.736 126.433 266.736 125.393ZM269.489 125.393C269.489 127.086 269.887 128.503 270.682 129.645C271.478 130.766 272.609 131.327 274.078 131.327C275.546 131.327 276.667 130.766 277.442 129.645C278.217 128.503 278.605 127.086 278.605 125.393C278.605 123.701 278.217 122.293 277.442 121.172C276.667 120.03 275.546 119.459 274.078 119.459C272.609 119.459 271.478 120.03 270.682 121.172C269.887 122.293 269.489 123.701 269.489 125.393Z" fill="black"/>
<path d="M316.934 184.055C316.934 183.015 317.066 182.016 317.331 181.058C317.617 180.079 318.035 179.232 318.585 178.519C319.136 177.785 319.819 177.203 320.635 176.775C321.471 176.326 322.429 176.102 323.51 176.102C324.713 176.102 325.753 176.418 326.63 177.05C327.527 177.683 328.19 178.549 328.618 179.65H328.68V170.596H331.218V191.702H328.68V188.46H328.618C328.19 189.561 327.527 190.428 326.63 191.06C325.753 191.692 324.713 192.008 323.51 192.008C322.429 192.008 321.471 191.794 320.635 191.366C319.819 190.917 319.136 190.336 318.585 189.622C318.035 188.888 317.617 188.042 317.331 187.083C317.066 186.105 316.934 185.095 316.934 184.055ZM319.687 184.055C319.687 185.748 320.084 187.165 320.88 188.307C321.675 189.429 322.807 189.989 324.275 189.989C325.743 189.989 326.865 189.429 327.64 188.307C328.415 187.165 328.802 185.748 328.802 184.055C328.802 182.363 328.415 180.956 327.64 179.834C326.865 178.692 325.743 178.121 324.275 178.121C322.807 178.121 321.675 178.692 320.88 179.834C320.084 180.956 319.687 182.363 319.687 184.055Z" fill="black"/>
<path d="M338.402 176.408V191.702H335.863V176.408H338.402ZM335.649 173.563V170.596H338.616V173.563H335.649Z" fill="black"/>
<path d="M345.601 182.526V191.702H343.062V176.408H345.509V179.406H345.57C345.958 178.366 346.539 177.56 347.314 176.989C348.109 176.398 349.068 176.102 350.189 176.102V178.855H349.639C348.415 178.855 347.436 179.13 346.702 179.681C345.968 180.211 345.601 181.159 345.601 182.526Z" fill="black"/>
<path d="M365.436 186.869C365.294 187.542 365.069 188.195 364.763 188.827C364.458 189.439 364.039 189.979 363.509 190.448C362.979 190.917 362.327 191.295 361.552 191.58C360.797 191.865 359.9 192.008 358.86 192.008C357.718 192.008 356.708 191.794 355.832 191.366C354.955 190.938 354.21 190.367 353.599 189.653C353.007 188.919 352.548 188.072 352.222 187.114C351.916 186.135 351.763 185.116 351.763 184.055C351.763 182.995 351.906 181.985 352.191 181.027C352.497 180.048 352.946 179.202 353.537 178.488C354.129 177.754 354.853 177.173 355.709 176.745C356.586 176.316 357.596 176.102 358.737 176.102C359.879 176.102 360.899 176.316 361.796 176.745C362.694 177.173 363.438 177.774 364.029 178.549C364.641 179.304 365.08 180.221 365.345 181.302C365.63 182.363 365.722 183.535 365.62 184.82H354.333C354.394 186.411 354.853 187.675 355.709 188.613C356.566 189.531 357.697 189.989 359.105 189.989C359.757 189.989 360.308 189.887 360.756 189.683C361.225 189.48 361.592 189.225 361.858 188.919C362.143 188.593 362.367 188.246 362.53 187.879C362.694 187.512 362.816 187.175 362.898 186.869H365.436ZM358.737 178.121C357.392 178.121 356.352 178.559 355.617 179.436C354.883 180.313 354.455 181.435 354.333 182.801H363.112C363.01 181.435 362.592 180.313 361.858 179.436C361.123 178.559 360.083 178.121 358.737 178.121Z" fill="black"/>
<path d="M368.432 184.055C368.432 183.036 368.595 182.047 368.921 181.088C369.268 180.13 369.747 179.283 370.359 178.549C370.971 177.815 371.705 177.224 372.561 176.775C373.438 176.326 374.417 176.102 375.498 176.102C377.333 176.102 378.822 176.571 379.964 177.509C381.126 178.427 381.87 179.763 382.197 181.516H379.658C379.433 180.293 378.954 179.426 378.22 178.916C377.506 178.386 376.65 178.121 375.651 178.121C374.937 178.121 374.294 178.284 373.723 178.61C373.173 178.916 372.704 179.345 372.316 179.895C371.949 180.425 371.664 181.047 371.46 181.761C371.276 182.475 371.185 183.239 371.185 184.055C371.185 184.891 371.287 185.676 371.491 186.411C371.694 187.124 371.99 187.746 372.378 188.276C372.765 188.807 373.244 189.225 373.815 189.531C374.407 189.836 375.08 189.989 375.834 189.989C376.813 189.989 377.659 189.724 378.373 189.194C379.107 188.643 379.586 187.756 379.811 186.533H382.35C382.023 188.287 381.279 189.643 380.117 190.601C378.954 191.539 377.455 192.008 375.62 192.008C374.519 192.008 373.52 191.794 372.622 191.366C371.745 190.938 370.991 190.367 370.359 189.653C369.747 188.919 369.268 188.072 368.921 187.114C368.595 186.135 368.432 185.116 368.432 184.055Z" fill="black"/>
<path d="M386.731 178.427H383.947V176.408H386.731V172.921H389.269V176.408H393.154V178.427H389.269V188.001C389.269 188.593 389.392 189.021 389.637 189.286C389.902 189.551 390.35 189.683 390.982 189.683H393.032V191.702H390.279C388.994 191.702 388.077 191.407 387.526 190.815C386.996 190.224 386.731 189.378 386.731 188.276V178.427Z" fill="black"/>
<path d="M398.743 176.408V191.702H396.204V176.408H398.743ZM395.99 173.563V170.596H398.957V173.563H395.99Z" fill="black"/>
<path d="M409.796 192.008C408.654 192.008 407.624 191.784 406.707 191.335C405.809 190.887 405.045 190.295 404.413 189.561C403.78 188.827 403.291 187.981 402.944 187.022C402.618 186.064 402.455 185.075 402.455 184.055C402.455 183.036 402.618 182.047 402.944 181.088C403.291 180.13 403.78 179.283 404.413 178.549C405.045 177.815 405.809 177.224 406.707 176.775C407.624 176.326 408.654 176.102 409.796 176.102C410.938 176.102 411.958 176.326 412.855 176.775C413.773 177.224 414.548 177.815 415.18 178.549C415.812 179.283 416.291 180.13 416.617 181.088C416.964 182.047 417.137 183.036 417.137 184.055C417.137 185.075 416.964 186.064 416.617 187.022C416.291 187.981 415.812 188.827 415.18 189.561C414.548 190.295 413.773 190.887 412.855 191.335C411.958 191.784 410.938 192.008 409.796 192.008ZM409.796 189.989C411.264 189.989 412.396 189.429 413.191 188.307C413.987 187.165 414.384 185.748 414.384 184.055C414.384 182.363 413.987 180.956 413.191 179.834C412.396 178.692 411.264 178.121 409.796 178.121C408.328 178.121 407.196 178.692 406.401 179.834C405.605 180.956 405.208 182.363 405.208 184.055C405.208 185.748 405.605 187.165 406.401 188.307C407.196 189.429 408.328 189.989 409.796 189.989Z" fill="black"/>
<path d="M430.453 182.22C430.453 180.956 430.167 179.977 429.596 179.283C429.046 178.57 428.159 178.213 426.935 178.213C425.691 178.213 424.784 178.57 424.213 179.283C423.662 179.997 423.387 180.894 423.387 181.975V191.702H420.848V176.408H423.295V179.406H423.356C423.744 178.366 424.325 177.56 425.1 176.989C425.895 176.398 426.854 176.102 427.975 176.102C428.791 176.102 429.515 176.245 430.147 176.53C430.779 176.795 431.299 177.163 431.707 177.632C432.135 178.101 432.451 178.661 432.655 179.314C432.88 179.946 432.992 180.619 432.992 181.333V191.702H430.453V182.22Z" fill="black"/>
<path d="M326.239 75.7614C326.239 75.2516 326.035 74.7927 325.628 74.3849C325.24 73.977 324.465 73.6406 323.303 73.3755L321.253 72.9166C319.785 72.5903 318.633 72.0805 317.797 71.3872C316.961 70.6939 316.543 69.7456 316.543 68.5425C316.543 67.2781 317.083 66.2381 318.164 65.4224C319.245 64.5863 320.601 64.1683 322.232 64.1683C323.966 64.1683 325.393 64.6271 326.515 65.5448C327.657 66.442 328.279 67.5942 328.381 69.0013H325.842C325.74 68.1244 325.373 67.4413 324.741 66.9518C324.129 66.442 323.293 66.1871 322.232 66.1871C321.355 66.1871 320.601 66.3707 319.969 66.7377C319.337 67.0844 319.02 67.6044 319.02 68.2977C319.02 68.9299 319.265 69.3887 319.755 69.6742C320.264 69.9597 321.09 70.235 322.232 70.5001L324.282 70.959C325.75 71.2852 326.851 71.8358 327.585 72.6107C328.319 73.3857 328.686 74.3849 328.686 75.6084C328.686 76.9135 328.156 77.9841 327.096 78.8202C326.056 79.6563 324.547 80.0744 322.569 80.0744C321.57 80.0744 320.672 79.9112 319.877 79.5849C319.102 79.2587 318.439 78.8406 317.889 78.3308C317.359 77.8006 316.93 77.199 316.604 76.5261C316.298 75.8327 316.125 75.1292 316.084 74.4155H318.623C318.704 75.4555 319.112 76.3222 319.846 77.0155C320.581 77.7088 321.519 78.0555 322.661 78.0555C323.639 78.0555 324.475 77.8516 325.169 77.4437C325.883 77.0359 326.239 76.4751 326.239 75.7614Z" fill="black"/>
<path d="M345.369 64.4742L338.028 84.9685H335.397L337.813 78.239H335.305L330.289 64.4742H332.919L337.875 78.0555L342.738 64.4742H345.369Z" fill="black"/>
<path d="M356.948 75.7614C356.948 75.2516 356.744 74.7927 356.336 74.3849C355.948 73.977 355.173 73.6406 354.011 73.3755L351.962 72.9166C350.493 72.5903 349.341 72.0805 348.505 71.3872C347.669 70.6939 347.251 69.7456 347.251 68.5425C347.251 67.2781 347.791 66.2381 348.872 65.4224C349.953 64.5863 351.309 64.1683 352.94 64.1683C354.674 64.1683 356.101 64.6271 357.223 65.5448C358.365 66.442 358.987 67.5942 359.089 69.0013H356.55C356.448 68.1244 356.081 67.4413 355.449 66.9518C354.837 66.442 354.001 66.1871 352.94 66.1871C352.064 66.1871 351.309 66.3707 350.677 66.7377C350.045 67.0844 349.729 67.6044 349.729 68.2977C349.729 68.9299 349.973 69.3887 350.463 69.6742C350.973 69.9597 351.798 70.235 352.94 70.5001L354.99 70.959C356.458 71.2852 357.559 71.8358 358.293 72.6107C359.028 73.3857 359.395 74.3849 359.395 75.6084C359.395 76.9135 358.864 77.9841 357.804 78.8202C356.764 79.6563 355.255 80.0744 353.277 80.0744C352.278 80.0744 351.38 79.9112 350.585 79.5849C349.81 79.2587 349.147 78.8406 348.597 78.3308C348.067 77.8006 347.638 77.199 347.312 76.5261C347.006 75.8327 346.833 75.1292 346.792 74.4155H349.331C349.413 75.4555 349.82 76.3222 350.555 77.0155C351.289 77.7088 352.227 78.0555 353.369 78.0555C354.348 78.0555 355.184 77.8516 355.877 77.4437C356.591 77.0359 356.948 76.4751 356.948 75.7614Z" fill="black"/>
<path d="M363.871 66.493H361.088V64.4742H363.871V60.9871H366.41V64.4742H370.295V66.493H366.41V76.0673C366.41 76.6586 366.533 77.0869 366.777 77.352C367.042 77.6171 367.491 77.7496 368.123 77.7496H370.173V79.7685H367.42C366.135 79.7685 365.217 79.4728 364.667 78.8814C364.136 78.29 363.871 77.4437 363.871 76.3426V66.493Z" fill="black"/>
<path d="M385.891 74.9355C385.748 75.6084 385.524 76.261 385.218 76.8931C384.912 77.5049 384.494 78.0453 383.964 78.5143C383.434 78.9834 382.781 79.3606 382.006 79.6461C381.252 79.9316 380.355 80.0744 379.315 80.0744C378.173 80.0744 377.163 79.8602 376.286 79.432C375.409 79.0038 374.665 78.4328 374.053 77.719C373.462 76.9849 373.003 76.1386 372.677 75.1802C372.371 74.2013 372.218 73.1817 372.218 72.1213C372.218 71.0609 372.361 70.0515 372.646 69.093C372.952 68.1142 373.401 67.2679 373.992 66.5542C374.583 65.8201 375.307 65.2389 376.164 64.8106C377.041 64.3824 378.05 64.1683 379.192 64.1683C380.334 64.1683 381.354 64.3824 382.251 64.8106C383.148 65.2389 383.893 65.8405 384.484 66.6154C385.096 67.3699 385.534 68.2876 385.799 69.3683C386.085 70.4288 386.177 71.6013 386.075 72.886H374.787C374.849 74.4766 375.307 75.741 376.164 76.679C377.02 77.5967 378.152 78.0555 379.559 78.0555C380.212 78.0555 380.762 77.9536 381.211 77.7496C381.68 77.5457 382.047 77.2908 382.312 76.9849C382.598 76.6586 382.822 76.312 382.985 75.9449C383.148 75.5778 383.271 75.2414 383.352 74.9355H385.891ZM379.192 66.1871C377.846 66.1871 376.806 66.6256 376.072 67.5024C375.338 68.3793 374.91 69.5009 374.787 70.8672H383.566C383.464 69.5009 383.046 68.3793 382.312 67.5024C381.578 66.6256 380.538 66.1871 379.192 66.1871Z" fill="black"/>
<path d="M392.343 70.0413V79.7685H389.804V64.4742H392.251V67.4719H392.312C392.7 66.4318 393.25 65.6263 393.964 65.0553C394.698 64.464 395.606 64.1683 396.686 64.1683C397.971 64.1683 399.011 64.4844 399.806 65.1165C400.622 65.7283 401.193 66.5134 401.519 67.4719H401.55C401.938 66.4318 402.529 65.6263 403.324 65.0553C404.12 64.464 405.058 64.1683 406.138 64.1683C406.974 64.1683 407.709 64.311 408.341 64.5965C408.993 64.8616 409.534 65.2287 409.962 65.6977C410.39 66.1667 410.706 66.7275 410.91 67.3801C411.134 68.0123 411.247 68.6852 411.247 69.3989V79.7685H408.708V70.286C408.708 69.0217 408.432 68.0428 407.882 67.3495C407.331 66.6358 406.454 66.2789 405.251 66.2789C403.967 66.2789 403.069 66.6358 402.559 67.3495C402.05 68.0632 401.795 68.9605 401.795 70.0413V79.7685H399.256V70.286C399.256 69.0217 398.981 68.0428 398.43 67.3495C397.879 66.6358 397.003 66.2789 395.799 66.2789C394.515 66.2789 393.617 66.6358 393.108 67.3495C392.598 68.0632 392.343 68.9605 392.343 70.0413Z" fill="black"/>
<path d="M424.756 75.7614C424.756 75.2516 424.552 74.7927 424.145 74.3849C423.757 73.977 422.982 73.6406 421.82 73.3755L419.77 72.9166C418.302 72.5903 417.15 72.0805 416.314 71.3872C415.478 70.6939 415.06 69.7456 415.06 68.5425C415.06 67.2781 415.6 66.2381 416.681 65.4224C417.762 64.5863 419.118 64.1683 420.749 64.1683C422.483 64.1683 423.91 64.6271 425.032 65.5448C426.174 66.442 426.796 67.5942 426.898 69.0013H424.359C424.257 68.1244 423.89 67.4413 423.257 66.9518C422.646 66.442 421.81 66.1871 420.749 66.1871C419.872 66.1871 419.118 66.3707 418.486 66.7377C417.853 67.0844 417.537 67.6044 417.537 68.2977C417.537 68.9299 417.782 69.3887 418.272 69.6742C418.781 69.9597 419.607 70.235 420.749 70.5001L422.799 70.959C424.267 71.2852 425.368 71.8358 426.102 72.6107C426.836 73.3857 427.203 74.3849 427.203 75.6084C427.203 76.9135 426.673 77.9841 425.613 78.8202C424.573 79.6563 423.064 80.0744 421.086 80.0744C420.086 80.0744 419.189 79.9112 418.394 79.5849C417.619 79.2587 416.956 78.8406 416.406 78.3308C415.875 77.8006 415.447 77.199 415.121 76.5261C414.815 75.8327 414.642 75.1292 414.601 74.4155H417.14C417.221 75.4555 417.629 76.3222 418.363 77.0155C419.097 77.7088 420.035 78.0555 421.177 78.0555C422.156 78.0555 422.992 77.8516 423.686 77.4437C424.399 77.0359 424.756 76.4751 424.756 75.7614Z" fill="black"/>
<path d="M429.563 83.2862L431.796 79.7685H430.634V76.8014H433.601V79.7685L431.368 83.2862H429.563Z" fill="black"/>
<path d="M497.147 121.719C497.147 120.577 496.831 119.68 496.199 119.027C495.587 118.354 494.69 118.018 493.507 118.018C492.345 118.018 491.468 118.313 490.876 118.905C490.285 119.496 489.969 120.24 489.928 121.138H487.389C487.43 120.444 487.593 119.782 487.879 119.149C488.164 118.517 488.562 117.977 489.072 117.528C489.581 117.059 490.203 116.692 490.937 116.427C491.692 116.142 492.548 115.999 493.507 115.999C494.343 115.999 495.138 116.111 495.893 116.335C496.647 116.56 497.3 116.927 497.85 117.437C498.421 117.926 498.87 118.578 499.196 119.394C499.523 120.189 499.686 121.158 499.686 122.3V131.599H497.239V128.601H497.177C496.79 129.641 496.158 130.457 495.281 131.048C494.404 131.619 493.374 131.905 492.192 131.905C491.457 131.905 490.764 131.803 490.112 131.599C489.479 131.375 488.919 131.059 488.429 130.651C487.94 130.243 487.552 129.743 487.267 129.152C487.002 128.561 486.869 127.898 486.869 127.164C486.869 126.389 487.032 125.736 487.359 125.206C487.685 124.655 488.113 124.207 488.643 123.86C489.194 123.513 489.826 123.248 490.54 123.065C491.274 122.881 492.049 122.749 492.864 122.667L497.147 122.208V121.719ZM492.803 129.886C494.149 129.886 495.21 129.478 495.985 128.663C496.759 127.847 497.147 126.613 497.147 124.961V124.135L493.079 124.594C491.937 124.717 491.07 124.992 490.479 125.42C489.908 125.848 489.622 126.47 489.622 127.286C489.622 128.041 489.928 128.663 490.54 129.152C491.152 129.641 491.906 129.886 492.803 129.886Z" fill="black"/>
<path d="M506.729 122.422V131.599H504.19V116.305H506.637V119.302H506.698C507.086 118.262 507.667 117.457 508.442 116.886C509.237 116.295 510.196 115.999 511.317 115.999V118.752H510.767C509.543 118.752 508.564 119.027 507.83 119.578C507.096 120.108 506.729 121.056 506.729 122.422Z" fill="black"/>
<path d="M515.418 118.324H512.634V116.305H515.418V112.818H517.957V116.305H521.841V118.324H517.957V127.898C517.957 128.489 518.079 128.917 518.324 129.183C518.589 129.448 519.037 129.58 519.669 129.58H521.719V131.599H518.966C517.681 131.599 516.764 131.303 516.213 130.712C515.683 130.121 515.418 129.274 515.418 128.173V118.324Z" fill="black"/>
<path d="M102.773 74.9118C102.773 74.4019 102.569 73.9431 102.161 73.5353C101.773 73.1274 100.998 72.7909 99.8361 72.5258L97.7867 72.067C96.3184 71.7407 95.1662 71.2309 94.3301 70.5376C93.4941 69.8442 93.076 68.896 93.076 67.6928C93.076 66.4285 93.6164 65.3885 94.6972 64.5728C95.778 63.7367 97.1341 63.3187 98.7655 63.3187C100.499 63.3187 101.926 63.7775 103.048 64.6952C104.19 65.5924 104.812 66.7446 104.914 68.1517H102.375C102.273 67.2748 101.906 66.5917 101.274 66.1022C100.662 65.5924 99.8259 65.3375 98.7655 65.3375C97.8886 65.3375 97.1341 65.5211 96.5019 65.8881C95.8698 66.2348 95.5537 66.7548 95.5537 67.4481C95.5537 68.0803 95.7984 68.5391 96.2878 68.8246C96.7976 69.1101 97.6235 69.3854 98.7655 69.6505L100.815 70.1093C102.283 70.4356 103.384 70.9862 104.119 71.7611C104.853 72.536 105.22 73.5353 105.22 74.7588C105.22 76.0639 104.689 77.1345 103.629 77.9706C102.589 78.8067 101.08 79.2248 99.102 79.2248C98.1028 79.2248 97.2055 79.0616 96.4102 78.7353C95.6353 78.4091 94.9725 77.991 94.4219 77.4812C93.8917 76.951 93.4635 76.3494 93.1372 75.6765C92.8313 74.9831 92.658 74.2796 92.6172 73.5659H95.156C95.2376 74.6059 95.6455 75.4726 96.3796 76.1659C97.1137 76.8592 98.0518 77.2059 99.1937 77.2059C100.173 77.2059 101.009 77.002 101.702 76.5941C102.416 76.1863 102.773 75.6255 102.773 74.9118Z" fill="black"/>
<path d="M109.696 65.6434H106.913V63.6246H109.696V60.1375H112.235V63.6246H116.12V65.6434H112.235V75.2176C112.235 75.809 112.358 76.2373 112.602 76.5024C112.867 76.7675 113.316 76.9 113.948 76.9H115.998V78.9189H113.245C111.96 78.9189 111.042 78.6232 110.492 78.0318C109.961 77.4404 109.696 76.5941 109.696 75.4929V65.6434Z" fill="black"/>
<path d="M121.709 69.7423V78.9189H119.17V63.6246H121.617V66.6222H121.678C122.066 65.5822 122.647 64.7767 123.422 64.2057C124.217 63.6144 125.175 63.3187 126.297 63.3187V66.0716H125.746C124.523 66.0716 123.544 66.3469 122.81 66.8975C122.076 67.4277 121.709 68.376 121.709 69.7423Z" fill="black"/>
<path d="M138.145 69.0387C138.145 67.8968 137.829 66.9995 137.197 66.3469C136.585 65.674 135.688 65.3375 134.505 65.3375C133.343 65.3375 132.466 65.6332 131.874 66.2246C131.283 66.816 130.967 67.5603 130.926 68.4576H128.387C128.428 67.7642 128.591 67.1015 128.877 66.4693C129.162 65.8371 129.56 65.2967 130.07 64.8481C130.579 64.3791 131.201 64.012 131.936 63.7469C132.69 63.4614 133.547 63.3187 134.505 63.3187C135.341 63.3187 136.136 63.4308 136.891 63.6551C137.645 63.8795 138.298 64.2465 138.849 64.7563C139.42 65.2458 139.868 65.8983 140.194 66.714C140.521 67.5093 140.684 68.478 140.684 69.6199V78.9189H138.237V75.9212H138.176C137.788 76.9612 137.156 77.7769 136.279 78.3683C135.402 78.9393 134.372 79.2248 133.19 79.2248C132.456 79.2248 131.762 79.1228 131.11 78.9189C130.477 78.6946 129.917 78.3785 129.427 77.9706C128.938 77.5628 128.55 77.0632 128.265 76.4718C128 75.8804 127.867 75.2176 127.867 74.4835C127.867 73.7086 128.03 73.056 128.357 72.5258C128.683 71.9753 129.111 71.5266 129.641 71.1799C130.192 70.8333 130.824 70.5682 131.538 70.3846C132.272 70.2011 133.047 70.0686 133.863 69.987L138.145 69.5282V69.0387ZM133.801 77.2059C135.147 77.2059 136.208 76.7981 136.983 75.9824C137.758 75.1667 138.145 73.9329 138.145 72.2811V71.4552L134.077 71.9141C132.935 72.0364 132.068 72.3117 131.477 72.74C130.906 73.1682 130.62 73.7902 130.62 74.6059C130.62 75.3604 130.926 75.9824 131.538 76.4718C132.15 76.9612 132.904 77.2059 133.801 77.2059Z" fill="black"/>
<path d="M146.05 65.6434H143.267V63.6246H146.05V60.1375H148.589V63.6246H152.474V65.6434H148.589V75.2176C148.589 75.809 148.711 76.2373 148.956 76.5024C149.221 76.7675 149.67 76.9 150.302 76.9H152.352V78.9189H149.599C148.314 78.9189 147.396 78.6232 146.846 78.0318C146.315 77.4404 146.05 76.5941 146.05 75.4929V65.6434Z" fill="black"/>
<path d="M168.07 74.0859C167.927 74.7588 167.703 75.4114 167.397 76.0435C167.091 76.6553 166.673 77.1957 166.143 77.6647C165.613 78.1338 164.96 78.511 164.185 78.7965C163.431 79.082 162.533 79.2248 161.493 79.2248C160.351 79.2248 159.342 79.0106 158.465 78.5824C157.588 78.1542 156.844 77.5832 156.232 76.8694C155.641 76.1353 155.182 75.289 154.856 74.3306C154.55 73.3517 154.397 72.3321 154.397 71.2717C154.397 70.2113 154.54 69.2019 154.825 68.2434C155.131 67.2646 155.58 66.4183 156.171 65.7046C156.762 64.9705 157.486 64.3893 158.343 63.961C159.22 63.5328 160.229 63.3187 161.371 63.3187C162.513 63.3187 163.533 63.5328 164.43 63.961C165.327 64.3893 166.072 64.9908 166.663 65.7658C167.275 66.5203 167.713 67.4379 167.978 68.5187C168.264 69.5791 168.355 70.7517 168.254 72.0364H156.966C157.028 73.627 157.486 74.8914 158.343 75.8294C159.199 76.7471 160.331 77.2059 161.738 77.2059C162.391 77.2059 162.941 77.1039 163.39 76.9C163.859 76.6961 164.226 76.4412 164.491 76.1353C164.777 75.809 165.001 75.4624 165.164 75.0953C165.327 74.7282 165.45 74.3918 165.531 74.0859H168.07ZM161.371 65.3375C160.025 65.3375 158.985 65.776 158.251 66.6528C157.517 67.5297 157.089 68.6513 156.966 70.0176H165.745C165.643 68.6513 165.225 67.5297 164.491 66.6528C163.757 65.776 162.717 65.3375 161.371 65.3375Z" fill="black"/>
<path d="M182.873 78.3989V75.0647H182.811C182.383 76.1659 181.72 77.0326 180.823 77.6647C179.946 78.2969 178.906 78.613 177.703 78.613C176.622 78.613 175.664 78.4193 174.828 78.0318C174.012 77.624 173.329 77.0734 172.778 76.38C172.228 75.6867 171.81 74.871 171.524 73.9329C171.259 72.9949 171.126 72.0058 171.126 70.9658C171.126 69.9258 171.259 68.9368 171.524 67.9987C171.81 67.0607 172.228 66.245 172.778 65.5516C173.329 64.8583 174.012 64.3179 174.828 63.9304C175.664 63.5226 176.622 63.3187 177.703 63.3187C178.906 63.3187 179.946 63.6348 180.823 64.2669C181.72 64.8991 182.383 65.7658 182.811 66.867H182.873V63.6246H185.411V78.3989C185.411 80.1118 184.84 81.5393 183.698 82.6813C182.556 83.8436 180.884 84.4248 178.682 84.4248C176.663 84.4248 175.103 83.966 174.002 83.0483C172.901 82.1307 172.248 80.8969 172.044 79.3471H174.583C174.746 80.4279 175.215 81.2028 175.99 81.6718C176.785 82.1613 177.683 82.406 178.682 82.406C179.865 82.406 180.854 82.0695 181.649 81.3966C182.465 80.744 182.873 79.7448 182.873 78.3989ZM173.879 70.9658C173.879 72.6584 174.277 74.0247 175.072 75.0647C175.868 76.0843 176.999 76.5941 178.468 76.5941C179.936 76.5941 181.058 76.0843 181.832 75.0647C182.607 74.0247 182.995 72.6584 182.995 70.9658C182.995 69.2733 182.607 67.9172 181.832 66.8975C181.058 65.8575 179.936 65.3375 178.468 65.3375C176.999 65.3375 175.868 65.8575 175.072 66.8975C174.277 67.9172 173.879 69.2733 173.879 70.9658Z" fill="black"/>
<path d="M203.392 63.6246L196.051 84.1189H193.42L195.837 77.3894H193.328L188.312 63.6246H190.942L195.898 77.2059L200.761 63.6246H203.392Z" fill="black"/>
<path d="M203.258 82.4366L205.491 78.9189H204.329V75.9518H207.296V78.9189L205.063 82.4366H203.258Z" fill="black"/>
<path d="M90.1458 185.666C90.003 186.339 89.7787 186.992 89.4728 187.624C89.1669 188.236 88.7489 188.776 88.2187 189.245C87.6885 189.714 87.0359 190.092 86.261 190.377C85.5065 190.663 84.6092 190.805 83.5692 190.805C82.4272 190.805 81.4178 190.591 80.5409 190.163C79.664 189.735 78.9197 189.164 78.308 188.45C77.7166 187.716 77.2577 186.87 76.9315 185.911C76.6256 184.932 76.4727 183.913 76.4727 182.852C76.4727 181.792 76.6154 180.782 76.9009 179.824C77.2068 178.845 77.6554 177.999 78.2468 177.285C78.8382 176.551 79.5621 175.97 80.4186 175.542C81.2954 175.113 82.3049 174.899 83.4469 174.899C84.5888 174.899 85.6084 175.113 86.5057 175.542C87.403 175.97 88.1473 176.571 88.7387 177.346C89.3504 178.101 89.7889 179.019 90.054 180.099C90.3395 181.16 90.4313 182.332 90.3293 183.617H79.0421C79.1033 185.208 79.5621 186.472 80.4186 187.41C81.2751 188.328 82.4069 188.787 83.8139 188.787C84.4665 188.787 85.0171 188.685 85.4657 188.481C85.9347 188.277 86.3018 188.022 86.5669 187.716C86.8524 187.39 87.0767 187.043 87.2399 186.676C87.403 186.309 87.5253 185.972 87.6069 185.666H90.1458ZM83.4469 176.918C82.101 176.918 81.061 177.357 80.3268 178.233C79.5927 179.11 79.1644 180.232 79.0421 181.598H87.8211C87.7191 180.232 87.301 179.11 86.5669 178.233C85.8328 177.357 84.7928 176.918 83.4469 176.918Z" fill="black"/>
<path d="M103.191 190.499L98.6941 184.076L94.167 190.499H91.3222L97.1341 182.302L92.0869 175.205H94.9317L98.6941 180.528L102.426 175.205H105.271L100.224 182.302L106.035 190.499H103.191Z" fill="black"/>
<path d="M122.891 182.852C122.891 183.892 122.748 184.902 122.463 185.881C122.198 186.839 121.79 187.685 121.239 188.419C120.689 189.133 119.995 189.714 119.159 190.163C118.344 190.591 117.395 190.805 116.315 190.805C115.111 190.805 114.061 190.489 113.164 189.857C112.287 189.225 111.635 188.358 111.206 187.257H111.145V195.7H108.606V175.205H111.145V178.448H111.206C111.635 177.346 112.287 176.48 113.164 175.848C114.061 175.215 115.111 174.899 116.315 174.899C117.395 174.899 118.344 175.124 119.159 175.572C119.995 176 120.689 176.582 121.239 177.316C121.79 178.03 122.198 178.876 122.463 179.855C122.748 180.813 122.891 181.812 122.891 182.852ZM120.138 182.852C120.138 181.16 119.74 179.753 118.945 178.631C118.15 177.489 117.018 176.918 115.55 176.918C114.082 176.918 112.96 177.489 112.185 178.631C111.41 179.753 111.023 181.16 111.023 182.852C111.023 184.545 111.41 185.962 112.185 187.104C112.96 188.226 114.082 188.787 115.55 188.787C117.018 188.787 118.15 188.226 118.945 187.104C119.74 185.962 120.138 184.545 120.138 182.852Z" fill="black"/>
<path d="M139.404 185.666C139.261 186.339 139.037 186.992 138.731 187.624C138.425 188.236 138.007 188.776 137.477 189.245C136.947 189.714 136.294 190.092 135.519 190.377C134.765 190.663 133.868 190.805 132.828 190.805C131.686 190.805 130.676 190.591 129.799 190.163C128.922 189.735 128.178 189.164 127.566 188.45C126.975 187.716 126.516 186.87 126.19 185.911C125.884 184.932 125.731 183.913 125.731 182.852C125.731 181.792 125.874 180.782 126.159 179.824C126.465 178.845 126.914 177.999 127.505 177.285C128.097 176.551 128.821 175.97 129.677 175.542C130.554 175.113 131.563 174.899 132.705 174.899C133.847 174.899 134.867 175.113 135.764 175.542C136.661 175.97 137.406 176.571 137.997 177.346C138.609 178.101 139.047 179.019 139.312 180.099C139.598 181.16 139.69 182.332 139.588 183.617H128.301C128.362 185.208 128.821 186.472 129.677 187.41C130.533 188.328 131.665 188.787 133.072 188.787C133.725 188.787 134.276 188.685 134.724 188.481C135.193 188.277 135.56 188.022 135.825 187.716C136.111 187.39 136.335 187.043 136.498 186.676C136.661 186.309 136.784 185.972 136.865 185.666H139.404ZM132.705 176.918C131.359 176.918 130.319 177.357 129.585 178.233C128.851 179.11 128.423 180.232 128.301 181.598H137.079C136.978 180.232 136.559 179.11 135.825 178.233C135.091 177.357 134.051 176.918 132.705 176.918Z" fill="black"/>
<path d="M145.856 181.323V190.499H143.317V175.205H145.764V178.203H145.825C146.213 177.163 146.794 176.357 147.569 175.786C148.364 175.195 149.323 174.899 150.444 174.899V177.652H149.894C148.67 177.652 147.691 177.928 146.957 178.478C146.223 179.008 145.856 179.957 145.856 181.323Z" fill="black"/>
<path d="M155.983 175.205V190.499H153.444V175.205H155.983ZM153.23 172.36V169.393H156.197V172.36H153.23Z" fill="black"/>
<path d="M173.398 185.666C173.255 186.339 173.031 186.992 172.725 187.624C172.419 188.236 172.001 188.776 171.471 189.245C170.941 189.714 170.288 190.092 169.513 190.377C168.759 190.663 167.862 190.805 166.822 190.805C165.68 190.805 164.67 190.591 163.793 190.163C162.916 189.735 162.172 189.164 161.56 188.45C160.969 187.716 160.51 186.87 160.184 185.911C159.878 184.932 159.725 183.913 159.725 182.852C159.725 181.792 159.868 180.782 160.153 179.824C160.459 178.845 160.908 177.999 161.499 177.285C162.091 176.551 162.815 175.97 163.671 175.542C164.548 175.113 165.557 174.899 166.699 174.899C167.841 174.899 168.861 175.113 169.758 175.542C170.655 175.97 171.4 176.571 171.991 177.346C172.603 178.101 173.041 179.019 173.306 180.099C173.592 181.16 173.684 182.332 173.582 183.617H162.295C162.356 185.208 162.815 186.472 163.671 187.41C164.527 188.328 165.659 188.787 167.066 188.787C167.719 188.787 168.27 188.685 168.718 188.481C169.187 188.277 169.554 188.022 169.819 187.716C170.105 187.39 170.329 187.043 170.492 186.676C170.655 186.309 170.778 185.972 170.859 185.666H173.398ZM166.699 176.918C165.353 176.918 164.313 177.357 163.579 178.233C162.845 179.11 162.417 180.232 162.295 181.598H171.073C170.972 180.232 170.553 179.11 169.819 178.233C169.085 177.357 168.045 176.918 166.699 176.918Z" fill="black"/>
<path d="M186.916 181.017C186.916 179.753 186.63 178.774 186.059 178.08C185.509 177.367 184.622 177.01 183.398 177.01C182.154 177.01 181.247 177.367 180.676 178.08C180.125 178.794 179.85 179.691 179.85 180.772V190.499H177.311V175.205H179.758V178.203H179.819C180.207 177.163 180.788 176.357 181.563 175.786C182.358 175.195 183.317 174.899 184.438 174.899C185.254 174.899 185.978 175.042 186.61 175.328C187.242 175.593 187.762 175.96 188.17 176.429C188.598 176.898 188.914 177.459 189.118 178.111C189.343 178.743 189.455 179.416 189.455 180.13V190.499H186.916V181.017Z" fill="black"/>
<path d="M193.032 182.852C193.032 181.833 193.195 180.844 193.521 179.885C193.868 178.927 194.347 178.08 194.959 177.346C195.571 176.612 196.305 176.021 197.162 175.572C198.038 175.124 199.017 174.899 200.098 174.899C201.933 174.899 203.422 175.368 204.564 176.306C205.726 177.224 206.471 178.56 206.797 180.313H204.258C204.034 179.09 203.555 178.223 202.82 177.713C202.107 177.183 201.25 176.918 200.251 176.918C199.537 176.918 198.895 177.081 198.324 177.408C197.773 177.713 197.304 178.142 196.917 178.692C196.55 179.222 196.264 179.844 196.06 180.558C195.877 181.272 195.785 182.037 195.785 182.852C195.785 183.688 195.887 184.474 196.091 185.208C196.295 185.921 196.591 186.543 196.978 187.074C197.365 187.604 197.845 188.022 198.416 188.328C199.007 188.634 199.68 188.787 200.435 188.787C201.413 188.787 202.26 188.521 202.973 187.991C203.707 187.441 204.187 186.554 204.411 185.33H206.95C206.624 187.084 205.879 188.44 204.717 189.398C203.554 190.336 202.056 190.805 200.22 190.805C199.119 190.805 198.12 190.591 197.223 190.163C196.346 189.735 195.591 189.164 194.959 188.45C194.347 187.716 193.868 186.87 193.521 185.911C193.195 184.932 193.032 183.913 193.032 182.852Z" fill="black"/>
<path d="M223.135 185.666C222.992 186.339 222.768 186.992 222.462 187.624C222.156 188.236 221.738 188.776 221.207 189.245C220.677 189.714 220.025 190.092 219.25 190.377C218.495 190.663 217.598 190.805 216.558 190.805C215.416 190.805 214.407 190.591 213.53 190.163C212.653 189.735 211.909 189.164 211.297 188.45C210.705 187.716 210.247 186.87 209.92 185.911C209.614 184.932 209.461 183.913 209.461 182.852C209.461 181.792 209.604 180.782 209.89 179.824C210.196 178.845 210.644 177.999 211.236 177.285C211.827 176.551 212.551 175.97 213.407 175.542C214.284 175.113 215.294 174.899 216.436 174.899C217.578 174.899 218.597 175.113 219.495 175.542C220.392 175.97 221.136 176.571 221.728 177.346C222.339 178.101 222.778 179.019 223.043 180.099C223.328 181.16 223.42 182.332 223.318 183.617H212.031C212.092 185.208 212.551 186.472 213.407 187.41C214.264 188.328 215.396 188.787 216.803 188.787C217.455 188.787 218.006 188.685 218.455 188.481C218.924 188.277 219.291 188.022 219.556 187.716C219.841 187.39 220.066 187.043 220.229 186.676C220.392 186.309 220.514 185.972 220.596 185.666H223.135ZM216.436 176.918C215.09 176.918 214.05 177.357 213.316 178.233C212.582 179.11 212.153 180.232 212.031 181.598H220.81C220.708 180.232 220.29 179.11 219.556 178.233C218.822 177.357 217.782 176.918 216.436 176.918Z" fill="black"/>
</svg>
